<svg width="520" height="140" viewBox="0 0 520 140" fill="none" xmlns="http://www.w3.org/2000/svg">
  <rect x="12" y="12" width="116" height="116" rx="28" fill="#111827"></rect>
  <path d="M48 70c0-18 14-32 32-32h16v20H80c-7 0-12 5-12 12v0c0 7 5 12 12 12h28v20H80c-18 0-32-14-32-32z" fill="#F9FAFB"></path>
  <path d="M92 38h20v64c0 18-14 32-32 32H60v-20h20c7 0 12-5 12-12V38z" fill="#F9FAFB" opacity="0.9"></path>
  <text x="150" y="78" font-family="Inter, system-ui, -apple-system" font-size="52" font-weight="700" fill="#111827">SkillLoop</text>
  <text x="152" y="110" font-family="Inter, system-ui, -apple-system" font-size="18" font-weight="500" fill="#6B7280">
    Curiosity → Daily Quests → Real Skills
  </text>
</svg>
